<?xml version="1.0" standalone="no"?>
<!DOCTYPE svg PUBLIC "-//W3C//DTD SVG 20010904//EN"
 "http://www.w3.org/TR/2001/REC-SVG-20010904/DTD/svg10.dtd">
<svg version="1.0" xmlns="http://www.w3.org/2000/svg"
 width="183.000000pt" height="183.000000pt" viewBox="0 0 183.000000 183.000000"
 preserveAspectRatio="xMidYMid meet">
<metadata>
Created by potrace 1.14, written by Peter Selinger 2001-2017
</metadata>
<g transform="translate(0.000000,183.000000) scale(0.100000,-0.100000)"
fill="#000000" stroke="none">
<path d="M1364 1349 c-105 -13 -198 -61 -266 -137 -119 -132 -146 -361 -63
-536 70 -149 204 -229 377 -228 120 1 220 39 296 111 28 28 28 35 -5 71 -29
33 -63 39 -84 13 -53 -63 -227 -84 -325 -39 -106 49 -159 149 -159 302 0 84 3
96 35 160 54 106 136 154 266 154 67 0 129 -18 174 -50 15 -11 37 -20 48 -20
23 0 77 73 67 90 -4 7 -34 29 -66 50 -84 54 -179 73 -295 59z"/>
<path d="M508 1342 c-11 -2 -48 -82 -109 -235 -50 -128 -98 -245 -105 -262
-28 -65 -154 -384 -154 -390 0 -10 106 -4 129 8 18 9 35 40 66 117 l41 105
184 3 185 2 43 -110 c24 -61 51 -114 60 -119 22 -11 132 -13 132 -2 0 8 -17
53 -39 106 -26 60 -50 119 -171 425 -73 184 -136 338 -140 343 -7 8 -95 14
-122 9z m112 -334 c28 -73 57 -148 65 -165 8 -18 11 -34 7 -34 -29 -5 -262 -3
-262 3 0 7 64 180 79 213 5 11 17 41 27 68 9 26 20 47 25 47 4 0 30 -60 59
-132z"/>
</g>
</svg>
